<?xml version="1.0" encoding="utf-8"?>
<!-- Generator: Adobe Illustrator 14.0.0, SVG Export Plug-In . SVG Version: 6.00 Build 43363)  -->
<!DOCTYPE svg PUBLIC "-//W3C//DTD SVG 1.1//EN" "http://www.w3.org/Graphics/SVG/1.1/DTD/svg11.dtd">
<svg version="1.1" id="Capa_1" xmlns="http://www.w3.org/2000/svg" xmlns:xlink="http://www.w3.org/1999/xlink" x="0px" y="0px"
	 width="30px" height="30px" viewBox="485 185 30 30" enable-background="new 485 185 30 30" xml:space="preserve">
<g>
	<path fill="#FFFFFF" d="M489.079,212.619c0,0-0.026,0.671,0.628,0.671c0.815,0,7.563-0.009,7.563-0.009l0.011-6.196
		c0,0-0.106-1.021,0.885-1.021h3.138c1.173,0,1.101,1.021,1.101,1.021l-0.014,6.176c0,0,6.397,0,7.402,0
		c0.832,0,0.793-0.835,0.793-0.835v-11.424l-10.432-9.279l-11.075,9.279V212.619z"/>
	<path fill="#FFFFFF" d="M485,200.139c0,0,0.94,1.733,2.991,0l12.255-10.368l11.49,10.304c2.375,1.712,3.264,0,3.264,0
		l-14.753-13.364L485,200.139z"/>
	<polygon fill="#FFFFFF" points="511.458,189.746 508.502,189.746 508.515,193.33 511.458,195.827 	"/>
</g>
</svg>
